<svg width="42" height="47" viewBox="0 0 42 47" fill="none" xmlns="http://www.w3.org/2000/svg">
<path fill-rule="evenodd" clip-rule="evenodd" d="M27.6493 18.5009C30.3816 21.2471 32.612 25.7404 31.3341 28.4076C27.9142 35.5495 2.41339 48.0675 0.248047 45.9022C-1.91729 43.7369 10.6101 18.2221 17.752 14.8068C20.4238 13.529 24.9171 15.764 27.6586 18.4916C27.6586 18.487 27.6493 18.5009 27.6493 18.5009Z" fill="#FF8200"/>
<path fill-rule="evenodd" clip-rule="evenodd" d="M41.1619 15.4851C40.7158 13.8449 39.5867 12.1814 37.8953 11.9862C34.796 11.6238 29.9124 17.1022 30.2609 18.4032C30.6094 19.7043 37.5097 21.9951 40.0885 20.1411C41.4175 19.1885 41.6034 17.1254 41.1666 15.4805L41.1619 15.4851ZM31.5712 0.304544C33.8713 0.927195 36.1993 2.51635 36.4734 4.88149C36.9799 9.22611 29.299 16.0753 27.4775 15.5874C25.656 15.0995 22.4406 5.42515 25.038 1.81006C26.3763 -0.0532478 29.2665 -0.31346 31.5712 0.290604V0.299897V0.304544Z" fill="#43B02A"/>
</svg>
