<svg width="56" height="49" viewBox="0 0 56 49" fill="none" xmlns="http://www.w3.org/2000/svg">
<path fill-rule="evenodd" clip-rule="evenodd" d="M39.6716 19.2247L34.3194 20.5039L34.4301 9.09275L36.2416 8.6593L36.1451 18.6217L39.6786 17.776L39.6716 19.2247ZM31.7823 11.048L27.3511 20.7253L31.6998 19.6865L31.6857 21.1352L25.344 22.6523L25.3582 21.3732L29.7869 11.6958L25.7681 12.657L25.7822 11.1611L31.8035 9.72409L31.7823 11.048ZM22.5619 23.3166L20.7504 23.7501L20.8587 12.3389L22.6703 11.9055L22.5619 23.3166ZM16.1544 24.8502L14.4841 20.8172L13.3063 21.1023L13.2662 25.5428L11.5041 25.9645L11.6125 14.5533L14.2815 13.9149C16.5854 13.3637 17.8952 14.0657 17.8717 16.4874C17.8575 17.7665 17.4194 19.0787 16.1119 19.9856L17.9588 24.4191L16.1544 24.8502ZM54.7883 6.38602C53.8154 6.29415 51.1228 6.43314 50.4514 6.15045C49.78 5.86776 48.899 5.22229 48.5668 4.75821C48.2347 4.29414 46.8942 2.81003 45.8742 2.43782C44.8542 2.06562 43.4148 2.02557 42.8589 2.02557C42.3029 2.02557 40.8612 2.02557 40.3053 1.79C39.7493 1.55442 38.9649 -0.238284 38.2181 0.0302685C38.2181 0.0302685 36.9201 0.124498 36.0838 1.9337C35.2475 3.7429 35.4807 4.02087 32.1403 4.76057C28.7999 5.50027 25.3205 5.23171 23.8835 6.01382C22.4465 6.79592 20.9129 9.49558 17.0637 9.63457C13.2144 9.77356 11.914 9.399 7.64075 12.0939C4.7597 13.9126 3.61481 15.498 3.01646 16.6075L4.48879 16.2542C7.31566 15.5757 8.89164 16.4897 8.84924 20.8902C8.80684 25.2907 7.16254 27.001 4.37336 27.6653L1.97523 28.2448L2.06946 18.445C1.39336 19.6912 0.231988 22.0964 0.0364629 24.3343C-0.19911 27.0245 0.778517 31.3379 0.917505 32.7772C1.05649 34.2166 1.56769 35.9787 1.52293 36.9987C1.47817 38.0187 1.01173 40.6642 1.52293 41.2202C2.03412 41.7761 5.09421 43.3545 7.17667 42.2402C9.25914 41.1259 8.24382 40.431 7.87161 40.1059C7.4006 39.6134 6.96675 39.0866 6.57361 38.5299C6.46537 38.3747 6.40367 38.1919 6.39574 38.0029C6.38781 37.8138 6.43399 37.6265 6.52885 37.4628C6.66784 37.1848 7.17667 35.2814 7.31566 34.9563C7.45465 34.6312 9.58894 31.4769 9.77504 30.8738C9.96114 30.2707 11.6314 30.4568 12.0012 30.7819C12.3711 31.107 13.0283 33.1918 13.0731 34.1341C13.1178 35.0764 13.1673 37.6135 13.9541 38.4004C14.7409 39.1872 17.9047 39.3167 18.4535 39.3167C19.3958 39.3285 20.3523 38.6618 19.7515 38.0588C19.1508 37.4557 17.7115 36.0234 17.4806 35.703C17.2498 35.3827 17.7162 33.9386 18.1308 33.3827C18.5454 32.8267 18.8375 32.6759 19.1108 33.2884C19.3841 33.9009 20.6821 37.6088 20.9671 39.835C21.2521 42.0612 21.2922 45.1707 21.4783 45.7243C21.6644 46.2779 24.3476 48.9752 25.7846 48.9752C27.2216 48.9752 31.7681 48.0942 29.5891 45.4416C27.41 42.7891 27.1768 43.6866 27.092 41.3662C27.0072 39.0458 27.4171 34.4993 27.5631 33.2484C27.7092 31.9975 27.7469 31.809 28.0343 32.4592C28.3217 33.1094 28.8706 38.1671 29.2875 39.7431C29.7045 41.3191 29.9259 43.2602 31.6079 43.9175C33.2899 44.5747 37.8318 45.3686 38.9366 44.5205C39.6174 43.9999 38.5196 43.1754 37.4054 42.2944C36.2911 41.4133 34.4843 40.3933 34.4372 39.1401C34.39 37.8868 35.3182 33.1094 35.8765 31.7643C36.4348 30.4192 36.7575 28.8879 36.8965 26.7984C37.0355 24.7089 37.2664 21.326 37.5915 21.1447C37.8506 20.9962 40.2747 19.8231 42.6115 18.4638L42.6398 14.2706L40.0485 7.74999L41.8742 7.31182L43.6056 12.1599H43.6528L45.4667 6.45434L47.1628 6.0468L44.4231 13.8419L44.3901 17.3496C47.0427 15.6158 47.9237 15.2907 48.4726 14.8761C49.0215 14.4615 50.8283 14.5981 52.3666 13.6699C53.9049 12.7418 53.846 11.955 53.846 11.955C53.846 11.955 54.7341 11.2482 54.965 10.3295C55.1958 9.41078 55.9402 8.93727 55.9402 7.82537C55.9402 6.71347 55.7541 6.48025 54.7789 6.38602H54.7883Z" fill="#DD4F40"/>
</svg>
